<?xml version="1.0" standalone="no"?>
<!DOCTYPE svg PUBLIC "-//W3C//DTD SVG 20010904//EN"
 "http://www.w3.org/TR/2001/REC-SVG-20010904/DTD/svg10.dtd">
<svg version="1.0" xmlns="http://www.w3.org/2000/svg"
 width="700.000000pt" height="700.000000pt" viewBox="0 0 700.000000 700.000000"
 preserveAspectRatio="xMidYMid meet">
<metadata>
Created by potrace 1.14, written by Peter Selinger 2001-2017
</metadata>
<g transform="translate(0.000000,700.000000) scale(0.100000,-0.100000)"
fill="#000000" stroke="none">
<path d="M4008 6697 c-126 -36 -200 -133 -223 -292 -4 -22 -17 -101 -30 -175
-13 -74 -26 -148 -29 -165 -10 -59 -57 -330 -62 -355 -5 -27 -53 -302 -58
-335 -2 -11 -11 -58 -20 -105 -8 -47 -18 -101 -21 -120 -3 -19 -17 -98 -30
-175 -13 -77 -27 -156 -30 -175 -4 -19 -29 -161 -56 -315 -27 -154 -52 -296
-55 -315 -3 -19 -11 -69 -19 -110 -8 -41 -26 -140 -39 -220 -14 -80 -32 -183
-40 -230 -8 -47 -17 -101 -21 -120 -3 -19 -12 -71 -20 -115 -8 -44 -16 -93
-19 -110 -3 -16 -12 -70 -21 -120 -17 -95 -113 -642 -121 -685 -2 -14 -13 -79
-24 -145 -22 -124 -27 -152 -35 -195 -2 -14 -18 -104 -34 -200 -17 -96 -35
-200 -41 -230 -6 -30 -21 -120 -35 -200 -13 -80 -29 -167 -35 -195 -5 -27 -12
-63 -14 -80 -6 -36 -45 -261 -81 -470 -29 -164 -28 -221 6 -286 44 -88 132
-152 226 -165 116 -16 240 52 292 159 16 34 32 80 35 102 3 22 8 51 11 65 3
14 12 68 21 120 9 52 18 104 20 115 7 35 36 199 40 230 3 17 7 41 10 55 2 14
13 78 24 142 12 64 23 127 25 140 3 13 7 37 10 53 3 17 7 44 10 60 3 17 8 46
11 65 3 19 16 94 29 165 13 72 26 146 29 165 3 19 19 112 36 205 16 94 32 184
35 200 3 17 7 40 9 51 2 12 7 37 10 55 11 64 35 204 40 229 3 14 7 41 10 60 3
19 8 46 11 60 5 27 21 119 30 185 4 22 8 47 10 55 4 13 25 127 41 225 2 17 7
37 9 45 3 8 7 33 10 55 2 22 9 63 14 90 6 28 12 66 15 85 3 19 10 60 16 90 6
30 13 69 16 85 2 17 13 80 24 140 11 61 22 126 25 145 3 19 10 60 16 90 6 30
12 66 14 80 5 36 14 85 30 175 8 44 17 96 20 115 3 19 7 46 10 60 3 14 7 39
10 55 3 17 8 44 11 60 3 17 18 104 34 195 16 91 40 230 55 310 14 80 28 161
31 180 5 34 9 59 19 110 3 14 8 41 11 60 2 19 7 46 10 60 2 14 6 36 9 50 4 28
22 130 30 175 2 17 7 41 10 55 3 14 10 52 15 85 10 58 14 83 25 143 59 317 66
392 44 462 -46 141 -207 227 -351 187z"/>
<path d="M2263 5384 c-78 -20 -113 -48 -278 -220 -258 -268 -294 -306 -515
-534 -118 -123 -237 -246 -265 -275 -27 -28 -152 -157 -276 -286 -222 -230
-259 -268 -481 -499 -131 -136 -151 -173 -151 -280 -1 -84 21 -142 72 -195 25
-26 342 -334 516 -500 33 -32 163 -157 289 -279 126 -121 248 -239 271 -261
52 -49 460 -443 605 -583 122 -118 182 -154 268 -157 171 -6 304 122 305 294
0 79 -35 150 -110 226 -61 60 -449 436 -527 509 -22 22 -147 141 -276 266
-129 125 -288 278 -352 340 -290 279 -362 350 -358 354 6 6 431 445 495 511
28 29 142 148 255 264 113 117 232 240 264 274 33 34 163 169 290 301 127 131
236 244 242 250 78 82 99 214 50 321 -59 130 -196 195 -333 159z"/>
<path d="M4613 5389 c-93 -17 -169 -78 -210 -166 -27 -59 -33 -108 -21 -172
17 -96 -20 -53 570 -662 35 -36 167 -173 293 -304 127 -131 257 -266 290 -300
33 -34 148 -154 257 -266 108 -112 200 -208 204 -212 5 -5 -44 -59 -108 -120
-63 -62 -211 -204 -328 -317 -117 -113 -247 -238 -289 -278 -42 -40 -173 -167
-291 -281 -118 -114 -228 -220 -245 -235 -16 -15 -93 -89 -169 -164 -106 -104
-145 -150 -164 -192 -65 -140 2 -314 148 -383 33 -16 63 -21 117 -21 100 1
153 30 278 151 55 53 203 196 329 317 126 122 297 287 380 367 376 362 395
381 730 702 252 242 281 274 307 337 21 53 17 166 -9 220 -25 54 -25 53 -317
355 -126 131 -265 275 -308 319 -79 82 -408 422 -526 545 -671 696 -693 718
-744 740 -54 23 -117 30 -174 20z"/>
</g>
</svg>
